<svg xmlns="http://www.w3.org/2000/svg" viewBox="0 0 256 256" width="256" height="256">
  <defs>
    <linearGradient id="arcGrad" x1="0" y1="0" x2="256" y2="256" gradientUnits="userSpaceOnUse">
      <stop offset="0%" stop-color="#3498db"/>
      <stop offset="50%" stop-color="#2ecc71"/>
      <stop offset="100%" stop-color="#3498db"/>
    </linearGradient>
    <linearGradient id="arrowGrad" x1="95" y1="128" x2="175" y2="128" gradientUnits="userSpaceOnUse">
      <stop offset="0%" stop-color="#e94560"/>
      <stop offset="100%" stop-color="#ff6b81"/>
    </linearGradient>
    <linearGradient id="tipGrad" x1="0" y1="0" x2="1" y2="0">
      <stop offset="0%" stop-color="#2ecc71"/>
      <stop offset="100%" stop-color="#3498db"/>
    </linearGradient>
    <filter id="arrowGlow" x="-30%" y="-30%" width="160%" height="160%">
      <feGaussianBlur in="SourceGraphic" stdDeviation="4" result="blur"/>
      <feColorMatrix in="blur" type="matrix" values="0 0 0 0 0.914  0 0 0 0 0.271  0 0 0 0 0.376  0 0 0 0.4 0" result="coloredBlur"/>
      <feMerge>
        <feMergeNode in="coloredBlur"/>
        <feMergeNode in="SourceGraphic"/>
      </feMerge>
    </filter>
    <filter id="dotGlow" x="-100%" y="-100%" width="300%" height="300%">
      <feGaussianBlur in="SourceGraphic" stdDeviation="2.5" result="blur"/>
      <feColorMatrix in="blur" type="matrix" values="0 0 0 0 1  0 0 0 0 1  0 0 0 0 1  0 0 0 0.6 0" result="coloredBlur"/>
      <feMerge>
        <feMergeNode in="coloredBlur"/>
        <feMergeNode in="SourceGraphic"/>
      </feMerge>
    </filter>
  </defs>

  <!-- Circular refresh arc (~300 degrees) centered on 128,128 with radius 90 -->
  <!-- Start at roughly 1 o'clock, sweep counter-clockwise almost full circle, end near 2 o'clock -->
  <!-- This creates a "relaunch" circular motion feel -->
  <path
    d="M 173,50
       A 90,90 0 1,0 193,78"
    fill="none"
    stroke="url(#arcGrad)"
    stroke-width="18"
    stroke-linecap="round"
    opacity="0.95"
  />

  <!-- Arrowhead at the arc terminus (pointing upper-right = launch direction) -->
  <polygon
    points="197,38 209,76 179,70"
    fill="url(#tipGrad)"
    opacity="0.95"
  />

  <!-- Central play/launch arrow -->
  <path
    d="M 98,78 L 178,128 L 98,178 Z"
    fill="url(#arrowGrad)"
    filter="url(#arrowGlow)"
  />

  <!-- AI neural dots along the arrow's leading edge -->
  <g filter="url(#dotGlow)">
    <circle cx="148" cy="106" r="3.5" fill="#fff" opacity="0.95"/>
    <circle cx="156" cy="118" r="3" fill="#fff" opacity="0.8"/>
    <circle cx="148" cy="150" r="3.5" fill="#fff" opacity="0.95"/>
    <circle cx="156" cy="138" r="3" fill="#fff" opacity="0.8"/>
    <circle cx="160" cy="128" r="4" fill="#fff" opacity="1"/>
  </g>

  <!-- Thin neural connection lines -->
  <g opacity="0.35" stroke="#fff" stroke-width="1">
    <line x1="148" y1="106" x2="156" y2="118"/>
    <line x1="156" y1="118" x2="160" y2="128"/>
    <line x1="160" y1="128" x2="156" y2="138"/>
    <line x1="156" y1="138" x2="148" y2="150"/>
    <line x1="148" y1="106" x2="160" y2="128"/>
    <line x1="160" y1="128" x2="148" y2="150"/>
  </g>
</svg>
